<?xml version="1.0" standalone="no"?>
<!DOCTYPE svg PUBLIC "-//W3C//DTD SVG 20010904//EN"
 "http://www.w3.org/TR/2001/REC-SVG-20010904/DTD/svg10.dtd">
<svg version="1.0" xmlns="http://www.w3.org/2000/svg"
 width="1024.000000pt" height="1024.000000pt" viewBox="0 0 1024.000000 1024.000000"
 preserveAspectRatio="xMidYMid meet">
<metadata>
Created by potrace 1.11, written by Peter Selinger 2001-2013
</metadata>
<g transform="translate(0.000000,1024.000000) scale(0.100000,-0.100000)"
fill="#000000" stroke="none">
<path d="M710 5400 l0 -4290 4410 0 4410 0 0 4290 0 4290 -4410 0 -4410 0 0
-4290z m5490 1153 l0 -696 78 75 c124 121 242 186 419 230 125 31 391 31 505
0 172 -47 272 -101 389 -210 102 -95 167 -183 228 -307 114 -232 161 -472 161
-828 0 -357 -43 -575 -160 -812 -189 -382 -511 -573 -930 -552 -263 14 -468
102 -636 274 l-71 72 -7 -122 c-4 -67 -9 -134 -12 -149 l-6 -28 -204 0 -204 0
0 1875 0 1875 225 0 225 0 0 -697z m-2285 532 c413 -62 742 -284 949 -641 190
-327 270 -743 252 -1304 -11 -317 -40 -505 -116 -731 -137 -412 -409 -718
-764 -859 -299 -118 -679 -131 -989 -33 -538 169 -892 659 -972 1341 -18 151
-20 652 -4 800 82 762 491 1284 1105 1411 132 27 137 28 299 29 81 1 182 -4
240 -13z"/>
<path d="M6722 5800 c-217 -32 -398 -164 -501 -367 -21 -42 -21 -50 -21 -615
l0 -573 37 -65 c21 -36 76 -104 123 -151 93 -94 178 -144 300 -176 91 -24 284
-23 364 1 341 102 506 422 506 981 0 347 -62 575 -204 757 -130 164 -360 243
-604 208z"/>
<path d="M3555 6694 c-95 -14 -182 -42 -275 -87 -94 -46 -115 -61 -205 -151
-182 -184 -281 -401 -330 -726 -22 -146 -30 -538 -16 -735 39 -538 229 -894
568 -1064 108 -54 192 -72 358 -78 198 -7 303 14 452 87 306 153 487 486 532
980 14 145 14 549 1 700 -32 374 -141 649 -331 838 -159 159 -337 230 -589
237 -74 2 -148 1 -165 -1z"/>
<path d="M390 700 c6 -11 19 -24 30 -30 26 -14 9374 -14 9400 0 11 6 24 19 30
30 11 20 -11 20 -4730 20 -4719 0 -4741 0 -4730 -20z"/>
</g>
</svg>
